{
	"asset":{
		"generator":"Khronos glTF Blender I/O v3.6.28",
		"version":"2.0"
	},
	"extensionsUsed":[
		"KHR_materials_specular",
		"KHR_materials_ior"
	],
	"scene":0,
	"scenes":[
		{
			"name":"Scene",
			"nodes":[
				0
			]
		}
	],
	"nodes":[
		{
			"mesh":0,
			"name":"fat cat obj",
			"rotation":[
				0.7071068286895752,
				0,
				0,
				0.7071068286895752
			]
		}
	],
	"materials":[
		{
			"alphaMode":"BLEND",
			"doubleSided":true,
			"extensions":{
				"KHR_materials_specular":{
					"specularColorFactor":[
						1,
						1,
						1
					]
				},
				"KHR_materials_ior":{
					"ior":1
				}
			},
			"name":"Mat.5",
			"pbrMetallicRoughness":{}
		},
		{
			"alphaMode":"BLEND",
			"doubleSided":true,
			"extensions":{
				"KHR_materials_specular":{
					"specularColorFactor":[
						1,
						1,
						1
					]
				},
				"KHR_materials_ior":{
					"ior":1
				}
			},
			"name":"Mat.1",
			"pbrMetallicRoughness":{
				"baseColorFactor":[
					1,
					0.6203333139419556,
					0.33000001311302185,
					1
				]
			}
		},
		{
			"doubleSided":true,
			"extensions":{
				"KHR_materials_specular":{
					"specularColorFactor":[
						0,
						0,
						0
					]
				},
				"KHR_materials_ior":{
					"ior":1.4500000476837158
				}
			},
			"name":"default",
			"pbrMetallicRoughness":{
				"metallicFactor":0
			}
		}
	],
	"meshes":[
		{
			"name":"fat cat obj",
			"primitives":[
				{
					"attributes":{
						"POSITION":0,
						"NORMAL":1,
						"TEXCOORD_0":2
					},
					"indices":3,
					"material":0
				},
				{
					"attributes":{
						"POSITION":4,
						"NORMAL":5,
						"TEXCOORD_0":6
					},
					"indices":7,
					"material":1
				},
				{
					"attributes":{
						"POSITION":8,
						"NORMAL":9,
						"TEXCOORD_0":10
					},
					"indices":11,
					"material":2
				}
			]
		}
	],
	"accessors":[
		{
			"bufferView":0,
			"componentType":5126,
			"count":14227,
			"max":[
				15.454545974731445,
				17.093961715698242,
				7.130552768707275
			],
			"min":[
				-11.124576568603516,
				-3.9245457649230957,
				-12.487035751342773
			],
			"type":"VEC3"
		},
		{
			"bufferView":1,
			"componentType":5126,
			"count":14227,
			"type":"VEC3"
		},
		{
			"bufferView":2,
			"componentType":5126,
			"count":14227,
			"type":"VEC2"
		},
		{
			"bufferView":3,
			"componentType":5123,
			"count":56724,
			"type":"SCALAR"
		},
		{
			"bufferView":4,
			"componentType":5126,
			"count":13786,
			"max":[
				11.841557502746582,
				17.2109432220459,
				7.660444259643555
			],
			"min":[
				-10.556185722351074,
				-8.95055103302002,
				-11.041945457458496
			],
			"type":"VEC3"
		},
		{
			"bufferView":5,
			"componentType":5126,
			"count":13786,
			"type":"VEC3"
		},
		{
			"bufferView":6,
			"componentType":5126,
			"count":13786,
			"type":"VEC2"
		},
		{
			"bufferView":7,
			"componentType":5123,
			"count":57930,
			"type":"SCALAR"
		},
		{
			"bufferView":8,
			"componentType":5126,
			"count":4937,
			"max":[
				-9.889496803283691,
				2.2480692863464355,
				-3.9512038230895996
			],
			"min":[
				-10.716731071472168,
				-1.2867742776870728,
				-5.804600715637207
			],
			"type":"VEC3"
		},
		{
			"bufferView":9,
			"componentType":5126,
			"count":4937,
			"type":"VEC3"
		},
		{
			"bufferView":10,
			"componentType":5126,
			"count":4937,
			"type":"VEC2"
		},
		{
			"bufferView":11,
			"componentType":5123,
			"count":15000,
			"type":"SCALAR"
		}
	],
	"bufferViews":[
		{
			"buffer":0,
			"byteLength":170724,
			"byteOffset":0,
			"target":34962
		},
		{
			"buffer":0,
			"byteLength":170724,
			"byteOffset":170724,
			"target":34962
		},
		{
			"buffer":0,
			"byteLength":113816,
			"byteOffset":341448,
			"target":34962
		},
		{
			"buffer":0,
			"byteLength":113448,
			"byteOffset":455264,
			"target":34963
		},
		{
			"buffer":0,
			"byteLength":165432,
			"byteOffset":568712,
			"target":34962
		},
		{
			"buffer":0,
			"byteLength":165432,
			"byteOffset":734144,
			"target":34962
		},
		{
			"buffer":0,
			"byteLength":110288,
			"byteOffset":899576,
			"target":34962
		},
		{
			"buffer":0,
			"byteLength":115860,
			"byteOffset":1009864,
			"target":34963
		},
		{
			"buffer":0,
			"byteLength":59244,
			"byteOffset":1125724,
			"target":34962
		},
		{
			"buffer":0,
			"byteLength":59244,
			"byteOffset":1184968,
			"target":34962
		},
		{
			"buffer":0,
			"byteLength":39496,
			"byteOffset":1244212,
			"target":34962
		},
		{
			"buffer":0,
			"byteLength":30000,
			"byteOffset":1283708,
			"target":34963
		}
	],
	"buffers":[
		{
			"byteLength":1313708,
			"uri":"data:application/octet-stream;base64,"
		}
	]
}
